<svg width="16" height="21" viewBox="0 0 16 21" fill="none" xmlns="http://www.w3.org/2000/svg">
<path d="M8.00795 10.7154C6.10949 10.684 4.60176 9.13606 4.62627 7.24375C4.65079 5.36139 6.22671 3.81801 8.09529 3.84708C10.0175 3.87693 11.5298 5.45245 11.4946 7.38837C11.4616 9.24395 9.88649 10.7468 8.00795 10.7154Z" fill="#07437E"/>
<path d="M8.46131 0.0115157C11.6389 0.13247 14.3751 2.329 15.2261 5.33914C15.6267 6.75673 15.5339 8.14931 15.0738 9.53867C14.1707 12.2658 12.7871 14.7566 11.2643 17.1781C10.5249 18.353 9.74145 19.4988 8.79926 20.5286C8.70805 20.6278 8.60952 20.7205 8.51342 20.8148C8.25039 21.0737 7.99224 21.0519 7.73165 20.806C7.32855 20.4237 6.97269 20.0004 6.64532 19.5545C4.36679 16.4548 2.45064 13.1657 1.17782 9.52497C-0.334417 5.20045 2.64364 0.762238 6.9621 0.0986027C7.45803 0.0219984 7.95804 -0.0223515 8.46131 0.0115157ZM8.12254 12.8786C11.2708 12.881 13.8376 10.3499 13.8286 7.25264C13.8197 4.12315 11.2903 1.62021 8.13475 1.61859C4.96126 1.61617 2.41725 4.14089 2.42865 7.28167C2.44005 10.3684 4.99139 12.8762 8.12254 12.8786Z" fill="#07437E"/>
</svg>
