<svg width="19" height="19" viewBox="0 0 19 19" fill="none" xmlns="http://www.w3.org/2000/svg">
<path d="M8.77573 15.0956C8.51701 15.1244 8.25708 15.1392 7.99516 15.1396C6.09174 15.113 4.44184 14.4568 3.05167 13.151C2.98949 13.0926 2.98409 13.047 3.01828 12.9735C3.81843 11.2506 5.14123 10.1671 7.00646 9.80662C8.34406 9.54809 9.67785 9.81421 10.7819 10.4748C10.7875 10.4694 10.7929 10.4634 10.7985 10.4568C10.8569 10.3892 10.9157 10.3183 10.9873 10.2669C11.0918 10.1919 11.1062 10.1035 11.0848 9.98456C11.0246 9.64886 10.9757 9.31137 10.9203 8.97487C10.9087 8.90389 10.9225 8.8589 10.9897 8.81532C11.5587 8.44743 12.1739 8.19431 12.8347 8.04735C12.9169 8.02916 12.9655 8.04655 13.0156 8.11733C13.2248 8.41264 13.4425 8.70175 13.653 8.99606C13.693 9.05204 13.7342 9.07664 13.803 9.07124C13.9524 9.05944 14.1247 9.11962 14.2457 9.04885C14.3616 8.98107 14.426 8.82431 14.5124 8.70615C14.6589 8.50601 14.8065 8.30667 14.9499 8.10433C14.9902 8.04735 15.0304 8.02796 15.1012 8.04315C15.4071 8.10873 15.7028 8.1981 15.9885 8.31107C15.9941 8.16711 15.9959 8.02216 15.9939 7.8762C15.932 3.51513 12.3576 -0.052988 7.8922 0.000595736C3.50533 0.0533797 -0.0683855 3.66148 0.000993394 8.12852C0.0685729 12.4856 3.64489 16.0551 8.12333 15.9949C8.46082 15.9897 8.79372 15.9635 9.12022 15.9176C8.98326 15.6528 8.8685 15.3787 8.77573 15.0956ZM8.00016 3.14024C9.57108 3.14104 10.8547 4.42445 10.8555 5.99537C10.8563 7.57169 9.57168 8.8565 7.99536 8.8557C6.42444 8.85491 5.14083 7.57149 5.14003 6.00057C5.13903 4.42445 6.42384 3.13964 8.00016 3.14024Z" fill="#36444E"/>
<path d="M15.5216 18.0498C15.4781 17.99 15.4347 17.9307 15.3918 17.8722C15.2765 17.7142 15.1572 17.551 15.0429 17.3905C14.897 17.1857 14.6828 17.0728 14.4395 17.0728C14.4178 17.0728 14.3952 17.0736 14.3729 17.0755C14.3321 17.0789 14.293 17.0818 14.263 17.0818C14.2448 17.0818 14.2373 17.0807 14.2364 17.0805C14.1902 17.0734 14.1441 17.0699 14.0993 17.0699C13.8178 17.0699 13.5844 17.2009 13.4051 17.4596C13.296 17.617 13.1836 17.7698 13.0645 17.9317C13.0359 17.9706 13.0068 18.0101 12.9778 18.0498C12.5569 17.934 12.1594 17.7689 11.7906 17.557C11.832 17.2841 11.8746 17.0024 11.9199 16.7282C11.9444 16.58 11.9456 16.2966 11.6786 16.0624C11.6675 16.0525 11.6564 16.0429 11.6451 16.0333C11.6234 16.0145 11.5941 15.9892 11.5829 15.9773C11.4205 15.7497 11.1797 15.6243 10.9045 15.6243C10.8418 15.6243 10.777 15.6306 10.7066 15.6434C10.5033 15.6803 10.2922 15.7134 10.0881 15.7453C10.0565 15.7504 10.0249 15.7552 9.99297 15.7602C9.77856 15.3871 9.61347 14.9892 9.5 14.5717C9.58672 14.5088 9.67282 14.4459 9.75725 14.3842C9.89266 14.2854 10.0325 14.1832 10.17 14.0843C10.3806 13.933 10.4901 13.71 10.4782 13.4559C10.4774 13.4388 10.4803 13.3982 10.4826 13.3658C10.4928 13.2223 10.5081 13.0053 10.4009 12.7867C10.2876 12.556 10.091 12.4361 9.96079 12.3569C9.93237 12.3395 9.90311 12.3218 9.88765 12.3103C9.84355 12.2779 9.79946 12.2453 9.75537 12.2127C9.67178 12.151 9.58693 12.0881 9.50063 12.0254C9.61285 11.6118 9.77794 11.2141 9.99339 10.838C10.2644 10.8791 10.5409 10.9218 10.8109 10.968C10.856 10.9757 10.9008 10.9797 10.9444 10.9797C11.0928 10.9797 11.3085 10.9345 11.4934 10.7199L11.5068 10.7044C11.5319 10.6754 11.5697 10.6313 11.5849 10.6192C11.7415 10.5069 11.9939 10.2465 11.9095 9.77529C11.8723 9.56777 11.8384 9.35314 11.8058 9.14541C11.8004 9.11114 11.795 9.07707 11.7897 9.0428C12.1607 8.83005 12.5588 8.66496 12.9784 8.55022C13.0451 8.64239 13.1119 8.7335 13.1775 8.82316C13.2718 8.95189 13.3694 9.08501 13.4628 9.21563C13.658 9.48835 13.9188 9.5291 14.0569 9.5291C14.0768 9.5291 14.0972 9.52827 14.1175 9.52681C14.1342 9.52681 14.1643 9.52952 14.1909 9.53182C14.2379 9.536 14.2964 9.54102 14.3599 9.54102C14.5298 9.54102 14.6757 9.50403 14.8057 9.42816C15.0096 9.30883 15.1218 9.1266 15.196 9.00581C15.2138 8.97697 15.2322 8.94687 15.2447 8.92974C15.2769 8.88585 15.3091 8.84196 15.3413 8.79808C15.401 8.71657 15.4621 8.63361 15.5229 8.5498C15.9398 8.66287 16.3377 8.82796 16.7109 9.0428C16.7048 9.08083 16.699 9.11887 16.6929 9.15669C16.6561 9.39097 16.6183 9.63297 16.5784 9.86912C16.5335 10.1341 16.626 10.3805 16.8323 10.5448L16.8459 10.5554C17.0358 10.8231 17.3173 10.9698 17.6448 10.9698C17.7426 10.9698 17.8458 10.9573 17.961 10.9314C18.1217 10.8952 18.2907 10.8704 18.4696 10.844C18.482 10.8422 18.4943 10.8405 18.5066 10.8386C18.7179 11.2056 18.883 11.6039 18.9998 12.0275C18.9112 12.0917 18.8238 12.1558 18.7377 12.2189C18.6101 12.3126 18.478 12.4095 18.3484 12.5021C18.0172 12.7389 18.0063 13.049 18.0293 13.2129C18.0304 13.22 18.031 13.2256 18.0314 13.2298C17.981 13.51 18.0256 13.8969 18.4901 14.2041C18.6301 14.2967 18.7674 14.3986 18.9126 14.5063C18.9415 14.5276 18.9707 14.5493 19 14.5711C18.8821 15.0001 18.7193 15.3926 18.5074 15.7598C18.4017 15.7426 18.2966 15.7259 18.1934 15.7096C18.0203 15.6822 17.8414 15.6538 17.6667 15.6245C17.6264 15.6179 17.5859 15.6143 17.5464 15.6143C17.4093 15.6143 17.2093 15.6546 17.0358 15.8465C17.02 15.864 17.0043 15.882 16.9888 15.9C16.9752 15.9157 16.9575 15.9363 16.9474 15.9466C16.6398 16.1602 16.5239 16.4789 16.6026 16.8943C16.6403 17.0929 16.671 17.292 16.7034 17.5029C16.7061 17.5204 16.7088 17.5382 16.7115 17.5562C16.3387 17.7706 15.9404 17.9359 15.5216 18.0498ZM14.231 10.3719C13.4647 10.3719 12.7387 10.6741 12.1868 11.2231C11.6349 11.7719 11.3281 12.4973 11.3229 13.2651C11.3118 14.8701 12.6085 16.1903 14.2132 16.208C14.2239 16.2082 14.2345 16.2082 14.2452 16.2082C15.8347 16.2082 17.1414 14.9113 17.1583 13.3172C17.1665 12.5414 16.8699 11.8077 16.3234 11.2509C15.7732 10.6904 15.0383 10.3784 14.254 10.3721L14.231 10.3719Z" fill="#36444E"/>
</svg>
