<svg width="18" height="19" viewBox="0 0 18 19" fill="none" xmlns="http://www.w3.org/2000/svg">
<path d="M6.61698 0C11.5653 0.0204112 14.7124 5.4438 12.3362 9.89224C12.1226 10.2921 12.1285 10.5142 12.443 10.8492C14.1468 12.6682 15.8271 14.51 17.5027 16.3554C18.2162 17.1406 18.1528 17.9919 17.3713 18.6379C16.7048 19.189 16.0113 19.1121 15.3577 18.4001C13.7114 16.6087 12.0581 14.8234 10.4329 13.0104C10.0844 12.6213 9.84504 12.5289 9.32287 12.7654C6.8106 13.9025 4.40627 13.6095 2.32464 11.7773C0.241831 9.94627 -0.464564 7.54495 0.299328 4.84347C1.06439 2.14438 2.92895 0.577518 5.6231 0.0612337C5.94696 -0.00120066 6.28491 0.0180099 6.61698 0ZM6.57005 1.57046C3.78671 1.57647 1.54197 3.87453 1.54197 6.7177C1.54197 9.54766 3.80901 11.8433 6.59704 11.8397C9.38154 11.8361 11.6239 9.53445 11.6169 6.68888C11.611 3.84452 9.36277 1.56446 6.57005 1.57046Z" fill="#07437E"/>
</svg>
