<svg width="16" height="15" viewBox="0 0 16 15" fill="none" xmlns="http://www.w3.org/2000/svg">
<path d="M12.2282 1.24702C12.1478 1.77268 12.0712 2.29464 11.9851 2.81524C11.9696 2.90842 11.9976 2.96008 12.0614 3.01612C12.1502 3.09377 12.2458 3.16974 12.3126 3.26461C12.426 3.42565 12.5631 3.44489 12.7448 3.41181C13.2086 3.3274 13.6756 3.26157 14.1408 3.18459C14.2228 3.17109 14.2745 3.18729 14.3224 3.26089C14.843 4.06003 15.2023 4.92534 15.4038 5.85716C15.4264 5.96148 15.395 6.0182 15.311 6.0783C14.8991 6.37202 14.4936 6.67486 14.0824 6.9696C14.0108 7.02092 13.9787 7.07258 13.9831 7.16306C13.9929 7.37035 13.9281 7.60905 14.0108 7.77752C14.0902 7.9389 14.3167 8.0287 14.4794 8.14856C14.7603 8.35518 15.0392 8.5645 15.3248 8.76403C15.4089 8.82278 15.4231 8.88118 15.4031 8.97437C15.2036 9.90686 14.8413 10.7705 14.3231 11.571C14.2502 11.6837 14.1621 11.6476 14.0729 11.6341C13.5847 11.5602 13.0962 11.4869 12.6094 11.4038C12.5098 11.387 12.4541 11.4153 12.3936 11.4852C12.3129 11.5787 12.2316 11.677 12.1327 11.7479C11.9878 11.8515 11.9682 11.9737 11.9976 12.1385C12.0807 12.6024 12.1485 13.0693 12.2252 13.5345C12.2414 13.6328 12.2221 13.6949 12.1289 13.755C11.3423 14.2635 10.4915 14.6136 9.57792 14.8168C9.46414 14.8421 9.39729 14.8182 9.32774 14.7199C9.03874 14.3114 8.73759 13.9117 8.44657 13.5048C8.3912 13.4275 8.33448 13.3934 8.23927 13.4008C8.03299 13.4174 7.79463 13.334 7.62717 13.4319C7.46681 13.5258 7.37768 13.7422 7.25816 13.9056C7.05559 14.1824 6.85133 14.4579 6.65315 14.7378C6.59744 14.8168 6.54174 14.8431 6.44383 14.8222C5.5056 14.6213 4.6359 14.2591 3.83339 13.7334C3.76384 13.6878 3.75438 13.6368 3.7662 13.5636C3.84892 13.048 3.92623 12.5318 4.01333 12.017C4.02785 11.9319 4.01097 11.8789 3.94716 11.8282C3.89449 11.7864 3.83609 11.7442 3.80097 11.6891C3.6163 11.3968 3.36309 11.3765 3.05079 11.4467C2.66287 11.5342 2.26448 11.576 1.87184 11.6429C1.76819 11.6604 1.71079 11.6273 1.65374 11.5396C1.14394 10.7533 0.797881 9.90044 0.592949 8.98753C0.568978 8.88085 0.593624 8.81602 0.687819 8.74951C1.09161 8.46389 1.48628 8.16578 1.88872 7.87813C1.97515 7.81634 2.02444 7.75557 2.00857 7.64416C1.99709 7.56144 1.99 7.47265 2.00655 7.39196C2.06293 7.11984 1.93261 6.96454 1.71653 6.82139C1.36508 6.58911 1.03489 6.32509 0.69052 6.08201C0.599702 6.01786 0.566614 5.95507 0.591598 5.84501C0.799232 4.92703 1.1463 4.06847 1.66184 3.27913C1.71586 3.19675 1.76785 3.16839 1.86711 3.18527C2.38197 3.27203 2.89819 3.34969 3.41305 3.43544C3.4853 3.44759 3.52818 3.42666 3.57342 3.3767C3.65242 3.28925 3.72636 3.19033 3.82224 3.12551C4.0238 2.98945 4.02312 2.81625 3.98261 2.60288C3.89787 2.15621 3.83744 1.70516 3.7635 1.25681C3.75033 1.17747 3.77869 1.1329 3.8425 1.09104C4.64603 0.56672 5.51707 0.207159 6.45463 0.00594044C6.54511 -0.0133038 6.59812 0.016407 6.65079 0.0896692C6.94586 0.500548 7.24837 0.906362 7.54176 1.31825C7.60151 1.40232 7.66364 1.43439 7.76458 1.42629C7.88747 1.4165 8.01442 1.40738 8.13495 1.42595C8.31793 1.45397 8.41888 1.37463 8.51814 1.23149C8.78384 0.847954 9.06778 0.47759 9.33922 0.0977716C9.39527 0.0194454 9.44929 -0.0153294 9.54686 0.00627804C10.4777 0.211211 11.345 0.566383 12.1438 1.08766C12.2063 1.1275 12.2539 1.1697 12.2282 1.24702ZM7.99923 10.6702C9.76428 10.6844 11.2403 9.2269 11.2525 7.4578C11.2646 5.67282 9.82539 4.20723 8.04041 4.18765C6.26321 4.16807 4.78918 5.61644 4.77027 7.40006C4.7517 9.18571 6.20311 10.656 7.99923 10.6702Z" fill="#36444E"/>
</svg>
