<svg width="18" height="14" viewBox="0 0 18 14" fill="none" xmlns="http://www.w3.org/2000/svg">
<path d="M0.00033555 2.77899C0.0627478 2.69208 0.0416081 2.58605 0.0624122 2.48974C0.343938 1.19351 1.41099 0.205656 2.72131 0.0284863C2.87163 0.00801777 3.02095 0.000971224 3.17128 0.000971224C4.29839 -0.000370974 5.42584 -3.54249e-05 6.55295 0.000300125C6.86769 0.000300125 6.98346 0.112374 7.00191 0.428461C7.01366 0.628784 7.02607 0.828101 6.99856 1.0291C6.96131 1.29988 6.85696 1.4029 6.58382 1.40323C5.46208 1.40424 4.34033 1.40256 3.21859 1.40457C2.94982 1.40491 2.68071 1.4284 2.43743 1.55322C1.76398 1.89918 1.40293 2.44176 1.4036 3.21285C1.40562 5.68518 1.40427 8.15717 1.40394 10.6295C1.40394 10.7969 1.41132 10.9634 1.43078 11.1301C1.514 11.8361 2.17 12.4861 2.88103 12.568C3.04813 12.5871 3.21423 12.5941 3.38167 12.5941C4.40845 12.5938 5.43523 12.5938 6.46201 12.5945C6.54557 12.5945 6.63147 12.5921 6.71166 12.6106C6.86669 12.6462 6.98446 12.7217 6.99419 12.9072C7.00762 13.1579 7.03312 13.4072 6.99554 13.6582C6.9593 13.8984 6.85092 13.9971 6.60294 13.9974C5.43657 13.9981 4.2702 14.0038 3.10383 13.9957C1.54957 13.985 0.251662 12.8374 0.0312061 11.2932C0.0275151 11.2674 0.0107376 11.2436 0 11.2191C0.00033555 8.40548 0.00033555 5.59223 0.00033555 2.77899Z" fill="#36444E"/>
<path d="M7.27979 9.80554C6.52648 9.80554 5.77317 9.80588 5.01986 9.80554C4.47795 9.80521 4.1924 9.52066 4.1924 8.98042C4.19173 7.65802 4.19173 6.33562 4.1924 5.01322C4.19273 4.48205 4.47963 4.1928 5.00778 4.1928C6.54225 4.19213 8.07672 4.19012 9.61119 4.19616C9.76051 4.19683 9.79608 4.15623 9.79507 4.0106C9.78836 3.05663 9.79037 2.10233 9.79239 1.14803C9.79339 0.700739 10.0283 0.409146 10.4232 0.355123C10.6037 0.330628 10.7655 0.382303 10.9101 0.488336C10.9591 0.524576 11.003 0.568197 11.0467 0.611483C12.9918 2.55633 14.936 4.50252 16.8832 6.44568C17.1077 6.66983 17.21 6.91881 17.1087 7.2302C17.0718 7.34361 16.998 7.43488 16.9141 7.51877C14.9491 9.48375 12.9841 11.4487 11.0198 13.4137C10.8084 13.6251 10.5598 13.7117 10.2729 13.6073C9.98533 13.5026 9.8199 13.2882 9.80044 12.9788C9.78836 12.7842 9.79205 12.5886 9.79205 12.3933C9.79138 11.6011 9.79239 10.8085 9.79138 10.0163C9.79104 9.77333 9.81386 9.80621 9.57327 9.80588C8.80855 9.80453 8.04417 9.80554 7.27979 9.80554Z" fill="#36444E"/>
</svg>
