<svg width="16" height="20" viewBox="0 0 16 20" fill="none" xmlns="http://www.w3.org/2000/svg">
<path d="M1.11747 11.9378C1.11747 10.3261 1.11235 8.71446 1.11917 7.10449C1.12088 6.64135 1.17552 6.18668 0.49601 6.14767C0.260403 6.13409 0.0913799 5.90846 0.057234 5.67774C-0.198861 3.94392 0.371377 2.37297 2.44062 2.23046C2.69501 2.2135 2.95281 2.2101 3.20891 2.22537C4.06427 2.27457 4.68402 2.27627 5.15011 1.20408C5.8723 -0.456786 10.1388 -0.373658 10.8388 1.294C11.2418 2.25251 11.7881 2.27287 12.5649 2.23046C12.961 2.20841 13.3656 2.20162 13.7583 2.25251C15.3632 2.46458 16.3961 4.18143 15.8549 5.70827C15.7866 5.90167 15.662 6.11543 15.4707 6.1324C14.7127 6.20026 14.8134 6.72787 14.8151 7.23172C14.8203 10.3702 14.8203 13.5071 14.8168 16.6456C14.8151 18.6542 13.789 19.684 11.783 19.6874C9.1947 19.6925 6.60473 19.6942 4.01646 19.6874C2.20502 19.6823 1.14478 18.6491 1.1243 16.8593C1.10381 15.2171 1.11747 13.5783 1.11747 11.9378ZM2.49867 11.8716C2.49867 13.5376 2.48501 15.2052 2.50379 16.8712C2.51404 17.8535 2.99037 18.3166 3.98232 18.32C6.62522 18.3302 9.26982 18.3302 11.9127 18.3183C12.9422 18.3149 13.4288 17.8433 13.4339 16.8084C13.4493 13.5037 13.4322 10.1989 13.4476 6.89412C13.451 6.3733 13.2666 6.21892 12.751 6.22231C9.56689 6.24267 6.38449 6.24606 3.20037 6.22401C2.62672 6.22061 2.47648 6.41741 2.48501 6.9552C2.51404 8.59401 2.49697 10.2328 2.49867 11.8716ZM7.97569 4.85494C9.93396 4.85494 11.8922 4.86003 13.8505 4.84815C14.0776 4.84645 14.4054 4.97708 14.4925 4.62421C14.5573 4.36295 14.4225 4.12714 14.2415 3.93374C13.9922 3.66909 13.6695 3.59105 13.3144 3.59105C9.73762 3.59444 6.16083 3.59105 2.58404 3.59783C2.39111 3.59783 2.18965 3.64534 2.00697 3.7115C1.61771 3.85231 1.38551 4.17464 1.42649 4.55805C1.476 5.0178 1.91307 4.84306 2.18453 4.84476C4.11378 4.86003 6.04473 4.85324 7.97569 4.85494ZM7.91423 2.22028C8.36837 2.22028 8.82422 2.22537 9.27836 2.21689C9.40982 2.21519 9.57884 2.25421 9.64372 2.09135C9.70689 1.93697 9.59421 1.825 9.49006 1.72999C9.16226 1.4348 6.74643 1.43311 6.43229 1.7266C6.32815 1.8233 6.21888 1.93527 6.27351 2.08795C6.33497 2.261 6.5057 2.2118 6.63546 2.2135C7.06058 2.22537 7.4874 2.21858 7.91423 2.22028Z" fill="#07437E"/>
<path d="M11.4447 12.4451C11.4447 13.4053 11.4379 14.3655 11.4464 15.3257C11.4515 15.816 11.2876 16.1875 10.743 16.1791C10.195 16.1706 10.0652 15.7855 10.0669 15.3003C10.0772 13.3798 10.0754 11.4594 10.0686 9.54067C10.0669 9.03851 10.1676 8.58215 10.7686 8.59233C11.3713 8.60251 11.4498 9.07244 11.4464 9.56612C11.4396 10.5246 11.4447 11.4849 11.4447 12.4451Z" fill="#07437E"/>
<path d="M5.83121 12.4604C5.8295 13.4189 5.82609 14.3757 5.83121 15.3342C5.83463 15.777 5.71682 16.1452 5.20805 16.1706C4.66513 16.1977 4.46196 15.8449 4.46196 15.3546C4.46025 13.3833 4.46025 11.4102 4.46537 9.43892C4.46708 8.9622 4.64805 8.57879 5.19268 8.59746C5.75609 8.61612 5.83804 9.03685 5.83463 9.50169C5.82609 10.4873 5.83292 11.4747 5.83121 12.4604Z" fill="#07437E"/>
<path d="M8.65687 12.44C8.65687 13.3968 8.6654 14.3553 8.65516 15.3121C8.65004 15.7702 8.52028 16.1892 7.95858 16.1807C7.402 16.1723 7.28249 15.76 7.2842 15.2952C7.2859 13.3238 7.28591 11.3525 7.29273 9.38289C7.29444 8.93671 7.45834 8.59063 7.97224 8.6008C8.47589 8.61098 8.64833 8.96216 8.65345 9.39985C8.6637 10.4127 8.65516 11.4255 8.65687 12.44Z" fill="#07437E"/>
</svg>
