<svg width="17" height="16" viewBox="0 0 17 16" fill="none" xmlns="http://www.w3.org/2000/svg">
<path d="M8.44171 15.5175C6.98097 15.5175 5.52061 15.5178 4.05987 15.5175C3.6058 15.5175 3.44994 15.3759 3.45107 14.9611C3.45332 14.1116 3.43234 13.2614 3.4668 12.4132C3.53724 10.6815 4.97775 9.18703 6.82849 8.88526C6.92552 8.86941 7.00982 8.87837 7.09936 8.91523C7.99289 9.28108 8.88791 9.2859 9.78144 8.91419C9.87098 8.87699 9.95565 8.86941 10.0527 8.88526C12.0053 9.20357 13.4084 10.7634 13.4297 12.653C13.4387 13.4391 13.4324 14.2256 13.4309 15.0121C13.4301 15.359 13.2581 15.5171 12.8798 15.5175C11.4003 15.5182 9.92081 15.5175 8.44171 15.5175Z" fill="#36444E"/>
<path d="M11.0638 5.74892C11.0589 5.94769 11.0803 6.2009 11.0421 6.45204C10.8518 7.71289 9.6454 8.61719 8.25996 8.53968C6.91574 8.46423 5.83676 7.41077 5.81915 6.15405C5.81503 5.84986 5.81466 5.54567 5.81915 5.24148C5.84013 3.92172 7.00565 2.86067 8.43492 2.85792C9.87206 2.85516 11.0424 3.91931 11.0631 5.24802C11.0657 5.39685 11.0638 5.54636 11.0638 5.74892Z" fill="#36444E"/>
<path d="M0.00389868 10.7232C0.0173859 10.2919 -0.0328165 9.77413 0.043611 9.26049C0.209579 8.14708 0.813506 7.27758 1.80444 6.63027C2.28024 6.31953 2.81299 6.13247 3.38282 6.02706C3.47348 6.01018 3.55291 6.01638 3.63608 6.05152C4.01934 6.21481 4.41984 6.31816 4.84431 6.32815C4.95558 6.3309 5.01028 6.36328 5.02264 6.4749C5.09607 7.14047 5.38005 7.72335 5.85885 8.22563C5.98248 8.35516 5.8345 8.35068 5.77343 8.37376C5.01964 8.65487 4.37151 9.07136 3.84214 9.64081C3.08985 10.4497 2.67811 11.3843 2.63466 12.4498C2.62829 12.6083 2.58558 12.6662 2.402 12.6631C1.79058 12.6524 1.17916 12.66 0.567739 12.6586C0.161624 12.6576 0.00577191 12.5122 0.00464797 12.1339C0.00314939 11.6913 0.00389868 11.2496 0.00389868 10.7232Z" fill="#36444E"/>
<path d="M16.8785 10.8316C16.8785 11.2678 16.8796 11.7039 16.8781 12.1397C16.877 12.5128 16.7181 12.6571 16.3083 12.6578C15.6969 12.6588 15.0851 12.6523 14.474 12.6619C14.3009 12.6647 14.2571 12.6141 14.2485 12.4601C14.1653 10.9315 13.4239 9.73235 12.0759 8.847C11.771 8.64685 11.4368 8.48838 11.0842 8.3685C10.9726 8.3306 10.952 8.30097 11.0404 8.20727C11.4978 7.72188 11.7792 7.16001 11.8526 6.51959C11.8695 6.37214 11.9294 6.32667 12.0827 6.32392C12.4749 6.31703 12.8466 6.21884 13.201 6.06933C13.3145 6.02145 13.4198 6.00905 13.543 6.03592C15.2919 6.41555 16.3757 7.41286 16.7968 9.0127C16.9238 9.49568 16.8747 9.99486 16.8785 10.4878C16.8792 10.6022 16.8785 10.7169 16.8785 10.8316Z" fill="#36444E"/>
<path d="M14.5037 2.83496C14.5213 3.20839 14.5198 3.5801 14.4093 3.94526C14.1257 4.88298 13.1415 5.61848 12.0854 5.68324C11.9261 5.69289 11.8804 5.65155 11.8872 5.50721C11.9198 4.83165 11.7699 4.19675 11.3773 3.61558C10.9195 2.93761 10.2732 2.48564 9.452 2.24449C9.30813 2.20212 9.27591 2.15148 9.30139 2.01575C9.5303 0.795198 10.6891 -0.0501936 12.0659 0.00768161C13.3359 0.0607339 14.41 1.03876 14.5018 2.23312C14.5172 2.43258 14.5037 2.63411 14.5037 2.83496Z" fill="#36444E"/>
<path d="M2.3642 2.82836C2.34584 2.313 2.38593 1.80831 2.64331 1.33463C3.14159 0.417239 4.29137 -0.134298 5.38384 0.0283036C6.52089 0.197451 7.42041 1.02975 7.58787 2.05669C7.60698 2.17348 7.56127 2.20345 7.45787 2.23514C6.15036 2.63407 5.34488 3.45155 5.05078 4.69105C4.98784 4.95665 4.97885 5.22777 4.99608 5.49682C5.00732 5.66942 4.93352 5.69456 4.77054 5.68182C3.53159 5.58536 2.36757 4.62284 2.3642 3.24245C2.3642 3.10396 2.3642 2.96616 2.3642 2.82836Z" fill="#36444E"/>
</svg>
