<svg width="17" height="17" viewBox="0 0 17 17" fill="none" xmlns="http://www.w3.org/2000/svg">
<path d="M8.12626 16.0007C3.6462 16.0609 0.0685976 12.4901 0.000993753 8.13146C-0.0684102 3.66281 3.5066 0.053399 7.89505 0.000595951C12.3623 -0.0530071 15.9377 3.5164 16.0003 7.87925C16.0641 12.3359 12.5031 15.9335 8.12626 16.0007ZM7.99825 15.1451C8.39668 15.1445 8.7911 15.1111 9.18272 15.0445C10.6334 14.7982 11.8863 14.16 12.9533 13.15C13.0071 13.0989 13.0177 13.0607 12.9867 12.9893C11.9827 10.6674 9.50254 9.32813 7.0092 9.80996C5.14329 10.1706 3.82001 11.2544 3.01957 12.9779C2.98537 13.0517 2.99077 13.0973 3.05297 13.1556C4.44365 14.462 6.09414 15.1185 7.99825 15.1451ZM10.8594 5.99774C10.8586 4.42625 9.57454 3.14238 8.00305 3.14158C6.42616 3.14078 5.14109 4.42605 5.14189 6.00294C5.14269 7.57443 6.42676 8.8583 7.99825 8.8591C9.57514 8.8597 10.8602 7.57463 10.8594 5.99774Z"/>
</svg>
